<svg xmlns="http://www.w3.org/2000/svg" width="1500" height="1150" viewBox="0 0 1500 1150" font-family="Helvetica, Arial, sans-serif">
<rect x="0" y="0" width="1500" height="1150" fill="white"/>

<defs>
  <marker id="triangle" markerWidth="16" markerHeight="14" refX="15" refY="7" orient="auto">
    <path d="M0,0 L16,7 L0,14 Z" fill="white" stroke="black" stroke-width="1.2"/>
  </marker>
  <marker id="arrow" markerWidth="12" markerHeight="10" refX="10" refY="5" orient="auto">
    <path d="M0,0 L12,5 L0,10" fill="none" stroke="black" stroke-width="1.2"/>
  </marker>
  <marker id="diamond" markerWidth="18" markerHeight="12" refX="17" refY="6" orient="auto">
    <path d="M0,6 L9,0 L18,6 L9,12 Z" fill="black" stroke="black"/>
  </marker>
</defs>

<rect x="600" y="20" width="260" height="150" fill="#eef4fb" stroke="#2c5c8a" stroke-width="1.4" rx="2"/><text x="730.0" y="40" text-anchor="middle" font-size="14" font-weight="bold" font-style="italic" fill="#12324f">Usuario</text><line x1="600" y1="48" x2="860" y2="48" stroke="#2c5c8a" stroke-width="1"/><text x="610" y="64" font-size="11.5" fill="#1a1a1a">- id: String</text><text x="610" y="79" font-size="11.5" fill="#1a1a1a">- nombre: String</text><text x="610" y="94" font-size="11.5" fill="#1a1a1a">- correo: String</text><line x1="600" y1="105" x2="860" y2="105" stroke="#2c5c8a" stroke-width="1"/><text x="610" y="121" font-size="11.5" fill="#1a1a1a">+ getId(): String</text><text x="610" y="136" font-size="11.5" fill="#1a1a1a">+ getNombre(): String</text><text x="610" y="151" font-size="11.5" fill="#1a1a1a">+ getCorreo(): String</text><text x="610" y="166" font-size="11.5" fill="#1a1a1a">+ describirRol(): String  {abstract}</text>
<rect x="280" y="250" width="240" height="110" fill="#eef4fb" stroke="#2c5c8a" stroke-width="1.4" rx="2"/><text x="400.0" y="270" text-anchor="middle" font-size="14" font-weight="bold" fill="#12324f">Estudiante</text><line x1="280" y1="278" x2="520" y2="278" stroke="#2c5c8a" stroke-width="1"/><text x="290" y="294" font-size="11.5" fill="#1a1a1a">- codigoEstudiantil: String</text><line x1="280" y1="305" x2="520" y2="305" stroke="#2c5c8a" stroke-width="1"/><text x="290" y="321" font-size="11.5" fill="#1a1a1a">+ getCodigoEstudiantil(): String</text><text x="290" y="336" font-size="11.5" fill="#1a1a1a">+ describirRol(): String</text>
<rect x="860" y="250" width="260" height="130" fill="#eef4fb" stroke="#2c5c8a" stroke-width="1.4" rx="2"/><text x="990.0" y="270" text-anchor="middle" font-size="14" font-weight="bold" fill="#12324f">Docente</text><line x1="860" y1="278" x2="1120" y2="278" stroke="#2c5c8a" stroke-width="1"/><text x="870" y="294" font-size="11.5" fill="#1a1a1a">- especialidad: String</text><text x="870" y="309" font-size="11.5" fill="#1a1a1a">- horarios: List&lt;Horario&gt;</text><line x1="860" y1="320" x2="1120" y2="320" stroke="#2c5c8a" stroke-width="1"/><text x="870" y="336" font-size="11.5" fill="#1a1a1a">+ publicarHorario(h: Horario)</text><text x="870" y="351" font-size="11.5" fill="#1a1a1a">+ getHorarios(): List&lt;Horario&gt;</text><text x="870" y="366" font-size="11.5" fill="#1a1a1a">+ describirRol(): String</text>
<rect x="1180" y="460" width="260" height="150" fill="#eef4fb" stroke="#2c5c8a" stroke-width="1.4" rx="2"/><text x="1310.0" y="480" text-anchor="middle" font-size="14" font-weight="bold" fill="#12324f">Horario</text><line x1="1180" y1="488" x2="1440" y2="488" stroke="#2c5c8a" stroke-width="1"/><text x="1190" y="504" font-size="11.5" fill="#1a1a1a">- inicio: LocalDateTime</text><text x="1190" y="519" font-size="11.5" fill="#1a1a1a">- fin: LocalDateTime</text><text x="1190" y="534" font-size="11.5" fill="#1a1a1a">- disponible: boolean</text><line x1="1180" y1="545" x2="1440" y2="545" stroke="#2c5c8a" stroke-width="1"/><text x="1190" y="561" font-size="11.5" fill="#1a1a1a">+ marcarOcupado()</text><text x="1190" y="576" font-size="11.5" fill="#1a1a1a">+ liberar()</text><text x="1190" y="591" font-size="11.5" fill="#1a1a1a">+ seSolapaCon(h: Horario): boolean</text>
<rect x="1180" y="20" width="240" height="130" fill="#fdf3e3" stroke="#a8721f" stroke-width="1.4" rx="2"/><text x="1300.0" y="40" text-anchor="middle" font-size="12" font-style="italic" fill="#333">&#171;enumeration&#187;</text><text x="1300.0" y="58" text-anchor="middle" font-size="14" font-weight="bold" fill="#12324f">EstadoReserva</text><line x1="1180" y1="66" x2="1420" y2="66" stroke="#a8721f" stroke-width="1"/><text x="1190" y="82" font-size="11.5" fill="#1a1a1a">SOLICITADA</text><text x="1190" y="97" font-size="11.5" fill="#1a1a1a">CONFIRMADA</text><text x="1190" y="112" font-size="11.5" fill="#1a1a1a">CANCELADA</text><text x="1190" y="127" font-size="11.5" fill="#1a1a1a">REPROGRAMADA</text><text x="1190" y="142" font-size="11.5" fill="#1a1a1a">COMPLETADA</text><line x1="1180" y1="153" x2="1420" y2="153" stroke="#a8721f" stroke-width="1"/>
<rect x="560" y="460" width="300" height="190" fill="#eef4fb" stroke="#2c5c8a" stroke-width="1.4" rx="2"/><text x="710.0" y="480" text-anchor="middle" font-size="14" font-weight="bold" fill="#12324f">Reserva</text><line x1="560" y1="488" x2="860" y2="488" stroke="#2c5c8a" stroke-width="1"/><text x="570" y="504" font-size="11.5" fill="#1a1a1a">- id: String</text><text x="570" y="519" font-size="11.5" fill="#1a1a1a">- estado: EstadoReserva</text><text x="570" y="534" font-size="11.5" fill="#1a1a1a">- notas: String</text><line x1="560" y1="545" x2="860" y2="545" stroke="#2c5c8a" stroke-width="1"/><text x="570" y="561" font-size="11.5" fill="#1a1a1a">+ confirmar()</text><text x="570" y="576" font-size="11.5" fill="#1a1a1a">+ cancelar(motivo: String)</text><text x="570" y="591" font-size="11.5" fill="#1a1a1a">+ reprogramar(h: Horario)</text><text x="570" y="606" font-size="11.5" fill="#1a1a1a">+ completar()</text>
<rect x="560" y="730" width="320" height="170" fill="#eef4fb" stroke="#2c5c8a" stroke-width="1.4" rx="2"/><text x="720.0" y="750" text-anchor="middle" font-size="14" font-weight="bold" fill="#12324f">ServicioReservas</text><line x1="560" y1="758" x2="880" y2="758" stroke="#2c5c8a" stroke-width="1"/><text x="570" y="774" font-size="11.5" fill="#1a1a1a">- repositorio: RepositorioReservas</text><text x="570" y="789" font-size="11.5" fill="#1a1a1a">- notificador: Notificador</text><line x1="560" y1="800" x2="880" y2="800" stroke="#2c5c8a" stroke-width="1"/><text x="570" y="816" font-size="11.5" fill="#1a1a1a">+ solicitarReserva(...)</text><text x="570" y="831" font-size="11.5" fill="#1a1a1a">+ confirmarReserva(id)</text><text x="570" y="846" font-size="11.5" fill="#1a1a1a">+ cancelarReserva(id, motivo)</text><text x="570" y="861" font-size="11.5" fill="#1a1a1a">+ reprogramarReserva(id, h)</text>
<rect x="120" y="730" width="300" height="140" fill="#eaf6ee" stroke="#2f7d43" stroke-width="1.4" rx="2"/><text x="270.0" y="750" text-anchor="middle" font-size="12" font-style="italic" fill="#333">&#171;interface&#187;</text><text x="270.0" y="768" text-anchor="middle" font-size="14" font-weight="bold" fill="#12324f">RepositorioReservas</text><line x1="120" y1="776" x2="420" y2="776" stroke="#2f7d43" stroke-width="1"/><line x1="120" y1="792" x2="420" y2="792" stroke="#2f7d43" stroke-width="1"/><text x="130" y="808" font-size="11.5" fill="#1a1a1a">+ guardar(r: Reserva)</text><text x="130" y="823" font-size="11.5" fill="#1a1a1a">+ buscarPorId(id): Optional&lt;Reserva&gt;</text><text x="130" y="838" font-size="11.5" fill="#1a1a1a">+ listarPorEstudiante(id): List</text><text x="130" y="853" font-size="11.5" fill="#1a1a1a">+ listarPorDocente(id): List</text>
<rect x="60" y="960" width="300" height="90" fill="#eaf6ee" stroke="#2f7d43" stroke-width="1.4" rx="2"/><text x="210.0" y="980" text-anchor="middle" font-size="14" font-weight="bold" fill="#12324f">RepositorioReservasEnMemoria</text><line x1="60" y1="988" x2="360" y2="988" stroke="#2f7d43" stroke-width="1"/><text x="70" y="1004" font-size="11.5" fill="#1a1a1a">- reservas: Map&lt;String,Reserva&gt;</text><line x1="60" y1="1015" x2="360" y2="1015" stroke="#2f7d43" stroke-width="1"/>
<rect x="1000" y="730" width="260" height="100" fill="#eaf6ee" stroke="#2f7d43" stroke-width="1.4" rx="2"/><text x="1130.0" y="750" text-anchor="middle" font-size="12" font-style="italic" fill="#333">&#171;interface&#187;</text><text x="1130.0" y="768" text-anchor="middle" font-size="14" font-weight="bold" fill="#12324f">Notificador</text><line x1="1000" y1="776" x2="1260" y2="776" stroke="#2f7d43" stroke-width="1"/><line x1="1000" y1="792" x2="1260" y2="792" stroke="#2f7d43" stroke-width="1"/><text x="1010" y="808" font-size="11.5" fill="#1a1a1a">+ notificar(u: Usuario, msg: String)</text>
<rect x="920" y="940" width="220" height="80" fill="#eaf6ee" stroke="#2f7d43" stroke-width="1.4" rx="2"/><text x="1030.0" y="960" text-anchor="middle" font-size="14" font-weight="bold" fill="#12324f">NotificadorEmailConsola</text><line x1="920" y1="968" x2="1140" y2="968" stroke="#2f7d43" stroke-width="1"/><line x1="920" y1="984" x2="1140" y2="984" stroke="#2f7d43" stroke-width="1"/>
<rect x="1170" y="940" width="220" height="80" fill="#eaf6ee" stroke="#2f7d43" stroke-width="1.4" rx="2"/><text x="1280.0" y="960" text-anchor="middle" font-size="14" font-weight="bold" fill="#12324f">NotificadorSmsConsola</text><line x1="1170" y1="968" x2="1390" y2="968" stroke="#2f7d43" stroke-width="1"/><line x1="1170" y1="984" x2="1390" y2="984" stroke="#2f7d43" stroke-width="1"/>
<line x1="430" y1="250" x2="660" y2="170" stroke="black" stroke-width="1.2" marker-end="url(#triangle)" />
<line x1="940" y1="250" x2="780" y2="170" stroke="black" stroke-width="1.2" marker-end="url(#triangle)" />
<line x1="1120" y1="320" x2="1250" y2="460" stroke="black" stroke-width="1.2" marker-end="url(#diamond)" />
<text x="1180" y="400" text-anchor="middle" font-size="11" fill="#222">1</text>
<text x="1275" y="450" text-anchor="middle" font-size="11" fill="#222">0..*</text>
<line x1="560" y1="520" x2="400" y2="360" stroke="black" stroke-width="1.2" marker-end="url(#arrow)" />
<text x="455" y="420" text-anchor="middle" font-size="11" fill="#222">estudiante  1</text>
<line x1="860" y1="500" x2="950" y2="380" stroke="black" stroke-width="1.2" marker-end="url(#arrow)" />
<text x="930" y="430" text-anchor="middle" font-size="11" fill="#222">docente  1</text>
<line x1="860" y1="555" x2="1180" y2="540" stroke="black" stroke-width="1.2" marker-end="url(#arrow)" />
<text x="1030" y="525" text-anchor="middle" font-size="11" fill="#222">horario  1</text>
<polyline points="860,470 1330,470 1330,150" fill="none" stroke="black" stroke-width="1.2" marker-end="url(#arrow)"/>
<text x="1365" y="460" text-anchor="middle" font-size="11" fill="#222">estado</text>
<line x1="710" y1="730" x2="710" y2="650" stroke="black" stroke-width="1.2" stroke-dasharray="6,4" marker-end="url(#arrow)" />
<text x="760" y="690" text-anchor="start" font-size="10.5" font-style="italic" fill="#222">&lt;&lt;crea&gt;&gt;</text>
<line x1="560" y1="790" x2="420" y2="790" stroke="black" stroke-width="1.2" stroke-dasharray="6,4" marker-end="url(#arrow)" />
<line x1="880" y1="790" x2="1000" y2="780" stroke="black" stroke-width="1.2" stroke-dasharray="6,4" marker-end="url(#arrow)" />
<line x1="230" y1="960" x2="260" y2="870" stroke="black" stroke-width="1.2" stroke-dasharray="6,4" marker-end="url(#triangle)" />
<line x1="1040" y1="940" x2="1090" y2="830" stroke="black" stroke-width="1.2" stroke-dasharray="6,4" marker-end="url(#triangle)" />
<line x1="1260" y1="940" x2="1180" y2="830" stroke="black" stroke-width="1.2" stroke-dasharray="6,4" marker-end="url(#triangle)" />
<text x="60" y="1080" text-anchor="start" font-size="12" fill="#222">Leyenda:</text>
<line x1="150" y1="1076" x2="200" y2="1076" stroke="black" stroke-width="1.2" marker-end="url(#triangle)" />
<text x="210" y="1080" text-anchor="start" font-size="11" fill="#222">Generalizacion / Realizacion (discontinua)</text>
<line x1="650" y1="1076" x2="700" y2="1076" stroke="black" stroke-width="1.2" marker-end="url(#diamond)" />
<text x="710" y="1080" text-anchor="start" font-size="11" fill="#222">Composicion</text>
<line x1="900" y1="1076" x2="950" y2="1076" stroke="black" stroke-width="1.2" marker-end="url(#arrow)" />
<text x="960" y="1080" text-anchor="start" font-size="11" fill="#222">Asociacion / Dependencia</text>
<text x="750" y="1130" text-anchor="middle" font-size="13" fill="#555">Diagrama UML de clases &#8212; Sistema de Gestion de Tutorias</text>
</svg>